<?xml version="1.0" encoding="UTF-8"?>
<svg width="700pt" height="700pt" version="1.1" viewBox="0 0 700 700" xmlns="http://www.w3.org/2000/svg">
 <path d="m180.3 43.598c-4.6172 0.089844-9.0117 2.0039-12.227 5.3203-3.2109 3.3164-4.9844 7.7656-4.9297 12.387v19.992h35v-19.992c0.054687-4.7383-1.8125-9.2969-5.1719-12.633-3.3633-3.3359-7.9336-5.168-12.672-5.0742zm17.844 37.699v55.031c0.10547 4.707-1.6953 9.2617-4.9883 12.625-3.293 3.3672-7.8047 5.2656-12.512 5.2656-4.7109 0-9.2227-1.8984-12.516-5.2656-3.293-3.3633-5.0898-7.918-4.9844-12.625v-55.031h-75.707c-4.625 0.019531-9.0547 1.8672-12.32 5.1406-3.2656 3.2695-5.1055 7.7031-5.1133 12.328v87.703h560v-87.703c-0.007812-4.6484-1.8672-9.1016-5.1641-12.379-3.293-3.2734-7.7578-5.1055-12.402-5.0898h-75.574v55.031c0 6.2539-3.3398 12.035-8.7578 15.164-5.4219 3.1289-12.098 3.1289-17.516 0-5.418-3.1289-8.7578-8.9102-8.7617-15.164v-55.031zm303.69 0h35.031v-19.992c0.058594-4.7383-1.8086-9.2969-5.1719-12.633s-7.9336-5.168-12.668-5.0742c-4.625 0.082032-9.0273 1.9883-12.25 5.3086-3.2188 3.3164-4.9961 7.7734-4.9453 12.398zm-431.83 140.17v277.5c0.019531 4.6172 1.8594 9.043 5.125 12.309 3.2656 3.2617 7.6875 5.1055 12.309 5.125h525c4.6406 0.015625 9.0977-1.8086 12.391-5.0781 3.2969-3.2695 5.1562-7.7148 5.1758-12.355v-277.5zm364.15 60.602c4.9219-0.046874 9.6406 1.9805 12.992 5.5898 3.3516 3.6094 5.0273 8.4609 4.6172 13.371-0.41406 4.9062-2.8711 9.4141-6.7773 12.414l-133.44 105.04c-3.9102 3.0859-8.9531 4.3555-13.859 3.4922-4.9062-0.85938-9.2148-3.7695-11.844-8.0039l-35-55.68c-3.3203-5.3047-3.5586-11.977-0.625-17.508 2.9297-5.5273 8.5859-9.0781 14.84-9.3086 6.2539-0.23047 12.156 2.8906 15.488 8.1914l24.676 39.172 118.09-92.902h0.003906c3.0742-2.4727 6.8906-3.832 10.836-3.8633z"/>
</svg>
