<?xml version="1.0" encoding="UTF-8"?>
<svg xmlns="http://www.w3.org/2000/svg" xmlns:xlink="http://www.w3.org/1999/xlink" width="32px" height="32px" viewBox="0 0 32 32" version="1.1">
<g id="surface1">
<path style=" stroke:none;fill-rule:nonzero;fill:rgb(33.333333%,34.117647%,36.078431%);fill-opacity:1;" d="M 9.125 3.96875 L 9.117188 4.015625 L 9.113281 4.03125 L 9.101562 4.0625 L 9.082031 4.125 L 9.074219 4.15625 L 9.050781 4.21875 L 9.03125 4.28125 L 9.019531 4.3125 L 9 4.375 L 8.992188 4.40625 L 8.980469 4.4375 L 8.957031 4.53125 L 8.9375 4.59375 L 8.925781 4.625 L 8.90625 4.6875 L 8.84375 4.875 L 8.824219 4.9375 L 8.8125 4.96875 L 8.792969 5.03125 L 8.769531 5.125 L 8.730469 5.25 L 8.675781 5.40625 L 8.636719 5.53125 L 8.613281 5.625 L 8.59375 5.6875 L 8.582031 5.71875 L 8.5625 5.78125 L 8.5 5.96875 L 8.480469 6.03125 L 8.46875 6.0625 L 8.460938 6.09375 L 8.449219 6.125 L 8.425781 6.21875 L 8.402344 6.28125 L 8.367188 6.335938 L 8.3125 6.371094 L 8.1875 6.417969 L 8.125 6.445312 L 8.09375 6.460938 L 8.03125 6.488281 L 7.96875 6.511719 L 7.9375 6.527344 L 7.90625 6.539062 L 7.4375 6.773438 L 7.375 6.800781 L 7.3125 6.824219 L 7.28125 6.839844 L 7.25 6.851562 L 6.9375 7.007812 L 6.90625 7.019531 L 6.84375 7.03125 L 6.78125 7.019531 L 6.75 7.007812 L 6.40625 6.835938 L 6.375 6.816406 L 6.34375 6.800781 L 6.28125 6.761719 L 6.25 6.746094 L 6.21875 6.726562 L 5.8125 6.523438 L 5.78125 6.503906 L 5.75 6.488281 L 5.6875 6.449219 L 5.65625 6.433594 L 5.625 6.414062 L 5.28125 6.242188 L 5.25 6.222656 L 5.21875 6.207031 L 5.15625 6.167969 L 5.125 6.152344 L 5.09375 6.132812 L 4.78125 5.976562 L 4.75 5.964844 L 4.691406 5.9375 L 4.640625 5.90625 L 4.628906 5.894531 L 4.59375 5.875 L 4.558594 5.917969 L 4.523438 5.957031 L 4.46875 6.007812 L 4.40625 6.0625 L 3.34375 7.125 L 3.28125 7.183594 L 3.226562 7.238281 L 3.199219 7.261719 L 3.175781 7.289062 L 3.121094 7.34375 L 3.0625 7.40625 L 2.5 7.96875 L 2.441406 8.03125 L 2.390625 8.089844 L 2.363281 8.117188 L 2.351562 8.132812 L 2.3125 8.15625 L 2.320312 8.203125 L 2.339844 8.25 L 2.351562 8.28125 L 2.601562 8.78125 L 2.621094 8.8125 L 2.636719 8.84375 L 2.675781 8.90625 L 2.691406 8.9375 L 2.710938 8.96875 L 2.882812 9.3125 L 2.902344 9.34375 L 2.917969 9.375 L 2.957031 9.4375 L 2.992188 9.5 L 3.164062 9.84375 L 3.183594 9.875 L 3.199219 9.90625 L 3.238281 9.96875 L 3.253906 10 L 3.273438 10.03125 L 3.429688 10.34375 L 3.445312 10.40625 L 3.445312 10.46875 L 3.425781 10.53125 L 3.410156 10.5625 L 3.382812 10.625 L 3.132812 11.125 L 3.121094 11.15625 L 3.105469 11.1875 L 3.082031 11.25 L 3.066406 11.28125 L 3.054688 11.3125 L 2.914062 11.59375 L 2.886719 11.65625 L 2.851562 11.75 L 2.824219 11.8125 L 2.800781 11.875 L 2.765625 11.929688 L 2.742188 11.953125 L 2.6875 11.988281 L 2.65625 12 L 2.59375 12.019531 L 2.53125 12.042969 L 2.46875 12.0625 L 2.4375 12.070312 L 2.40625 12.082031 L 2.3125 12.105469 L 2.28125 12.117188 L 2.25 12.125 L 2.1875 12.144531 L 1.9375 12.230469 L 1.875 12.25 L 1.84375 12.257812 L 1.8125 12.269531 L 1.71875 12.292969 L 1.59375 12.332031 L 1.4375 12.386719 L 1.375 12.40625 L 1.34375 12.414062 L 1.3125 12.425781 L 1.21875 12.449219 L 1.15625 12.46875 L 1.125 12.480469 L 1.0625 12.5 L 0.875 12.5625 L 0.8125 12.582031 L 0.78125 12.59375 L 0.71875 12.613281 L 0.65625 12.628906 L 0.53125 12.667969 L 0.4375 12.703125 L 0.421875 12.710938 L 0.375 12.71875 L 0.375 15.90625 L 0.378906 15.933594 L 0.382812 15.984375 L 0.375 16.03125 L 0.421875 16.039062 L 0.4375 16.046875 L 0.59375 16.105469 L 0.625 16.113281 L 0.8125 16.175781 L 0.84375 16.1875 L 0.90625 16.207031 L 1 16.230469 L 1.0625 16.25 L 1.09375 16.261719 L 1.15625 16.28125 L 1.34375 16.34375 L 1.40625 16.363281 L 1.4375 16.375 L 1.5 16.394531 L 1.59375 16.417969 L 1.71875 16.457031 L 1.875 16.511719 L 2 16.550781 L 2.09375 16.574219 L 2.15625 16.59375 L 2.1875 16.605469 L 2.25 16.625 L 2.4375 16.6875 L 2.5 16.707031 L 2.53125 16.71875 L 2.59375 16.738281 L 2.65625 16.753906 L 2.6875 16.765625 L 2.742188 16.796875 L 2.765625 16.820312 L 2.800781 16.875 L 2.824219 16.9375 L 2.851562 17 L 2.867188 17.03125 L 2.894531 17.09375 L 2.917969 17.15625 L 2.945312 17.21875 L 3.117188 17.5625 L 3.128906 17.59375 L 3.144531 17.625 L 3.167969 17.6875 L 3.183594 17.71875 L 3.195312 17.75 L 3.46875 18.296875 L 3.5 18.34375 L 3.460938 18.367188 L 3.449219 18.382812 L 3.414062 18.4375 L 3.242188 18.78125 L 3.207031 18.84375 L 3.167969 18.90625 L 3.152344 18.9375 L 3.132812 18.96875 L 2.960938 19.3125 L 2.941406 19.34375 L 2.925781 19.375 L 2.886719 19.4375 L 2.871094 19.46875 L 2.851562 19.5 L 2.648438 19.90625 L 2.628906 19.9375 L 2.613281 19.96875 L 2.574219 20.03125 L 2.558594 20.0625 L 2.539062 20.09375 L 2.351562 20.46875 L 2.339844 20.5 L 2.320312 20.546875 L 2.3125 20.59375 L 4.59375 22.875 L 4.640625 22.855469 L 4.65625 22.84375 L 4.71875 22.8125 L 4.75 22.800781 L 4.8125 22.769531 L 4.875 22.730469 L 4.9375 22.695312 L 5.34375 22.492188 L 5.375 22.472656 L 5.40625 22.457031 L 5.46875 22.417969 L 5.5 22.402344 L 5.53125 22.382812 L 5.875 22.210938 L 5.90625 22.191406 L 5.9375 22.175781 L 6 22.136719 L 6.03125 22.121094 L 6.0625 22.101562 L 6.40625 21.929688 L 6.4375 21.910156 L 6.46875 21.894531 L 6.53125 21.855469 L 6.59375 21.820312 L 6.75 21.742188 L 6.78125 21.730469 L 6.84375 21.71875 L 6.875 21.722656 L 6.90625 21.730469 L 6.9375 21.742188 L 7 21.769531 L 7.0625 21.792969 L 7.09375 21.808594 L 7.125 21.820312 L 7.65625 22.085938 L 7.6875 22.097656 L 7.71875 22.113281 L 7.78125 22.136719 L 7.8125 22.152344 L 7.84375 22.164062 L 8.0625 22.273438 L 8.09375 22.285156 L 8.125 22.300781 L 8.21875 22.335938 L 8.28125 22.363281 L 8.34375 22.386719 L 8.359375 22.390625 L 8.40625 22.40625 L 8.40625 22.453125 L 8.414062 22.5 L 8.417969 22.53125 L 8.4375 22.59375 L 8.449219 22.625 L 8.542969 22.90625 L 8.5625 22.96875 L 8.570312 23 L 8.582031 23.03125 L 8.605469 23.125 L 8.644531 23.25 L 8.699219 23.40625 L 8.738281 23.53125 L 8.761719 23.625 L 8.78125 23.6875 L 8.792969 23.71875 L 8.8125 23.78125 L 8.875 23.96875 L 8.894531 24.03125 L 8.90625 24.0625 L 8.925781 24.125 L 8.949219 24.21875 L 8.96875 24.28125 L 8.980469 24.3125 L 9 24.375 L 9.0625 24.5625 L 9.101562 24.6875 L 9.113281 24.71875 L 9.117188 24.734375 L 9.125 24.78125 L 12.46875 24.78125 L 12.464844 24.730469 L 12.480469 24.679688 L 12.492188 24.652344 L 12.515625 24.59375 L 12.527344 24.5625 L 12.535156 24.53125 L 12.554688 24.46875 L 12.5625 24.4375 L 12.582031 24.375 L 12.636719 24.21875 L 12.675781 24.09375 L 12.699219 24 L 12.710938 23.96875 L 12.730469 23.90625 L 12.738281 23.875 L 12.769531 23.78125 L 12.824219 23.625 L 12.84375 23.5625 L 12.851562 23.53125 L 12.863281 23.5 L 12.886719 23.40625 L 12.925781 23.28125 L 12.980469 23.125 L 13.019531 23 L 13.042969 22.90625 L 13.054688 22.875 L 13.09375 22.75 L 13.125 22.65625 L 13.144531 22.59375 L 13.191406 22.46875 L 13.207031 22.441406 L 13.226562 22.414062 L 13.28125 22.378906 L 13.3125 22.363281 L 13.34375 22.351562 L 13.375 22.335938 L 13.46875 22.300781 L 13.5 22.285156 L 13.53125 22.273438 L 13.75 22.164062 L 13.78125 22.152344 L 13.8125 22.136719 L 13.875 22.113281 L 13.90625 22.097656 L 13.9375 22.085938 L 14.46875 21.820312 L 14.5 21.808594 L 14.5625 21.78125 L 14.59375 21.769531 L 14.65625 21.742188 L 14.6875 21.730469 L 14.75 21.71875 L 14.78125 21.722656 L 14.84375 21.742188 L 14.875 21.757812 L 14.9375 21.792969 L 15 21.832031 L 15.0625 21.867188 L 15.40625 22.039062 L 15.46875 22.074219 L 15.53125 22.113281 L 15.5625 22.128906 L 15.59375 22.148438 L 15.9375 22.320312 L 15.96875 22.339844 L 16 22.355469 L 16.0625 22.394531 L 16.09375 22.410156 L 16.125 22.429688 L 16.46875 22.601562 L 16.5 22.621094 L 16.53125 22.636719 L 16.59375 22.675781 L 16.625 22.691406 L 16.65625 22.710938 L 16.78125 22.773438 L 16.8125 22.785156 L 16.875 22.8125 L 16.9375 22.84375 L 16.953125 22.855469 L 17 22.875 L 17.023438 22.832031 L 17.039062 22.816406 L 17.09375 22.769531 L 17.1875 22.6875 L 19.09375 20.78125 L 19.152344 20.71875 L 19.179688 20.6875 L 19.230469 20.632812 L 19.242188 20.617188 L 19.28125 20.59375 L 19.269531 20.546875 L 19.261719 20.53125 L 19.25 20.5 L 19.21875 20.4375 L 19.191406 20.375 L 19.179688 20.34375 L 19.160156 20.3125 L 19.144531 20.28125 L 19.105469 20.21875 L 19.070312 20.15625 L 18.898438 19.8125 L 18.878906 19.78125 L 18.863281 19.75 L 18.824219 19.6875 L 18.808594 19.65625 L 18.789062 19.625 L 18.617188 19.28125 L 18.597656 19.25 L 18.582031 19.21875 L 18.542969 19.15625 L 18.527344 19.125 L 18.507812 19.09375 L 18.304688 18.6875 L 18.285156 18.65625 L 18.269531 18.625 L 18.230469 18.5625 L 18.195312 18.5 L 18.164062 18.4375 L 18.132812 18.382812 L 18.125 18.367188 L 18.09375 18.34375 L 18.125 18.296875 L 18.367188 17.8125 L 18.378906 17.78125 L 18.394531 17.75 L 18.417969 17.6875 L 18.433594 17.65625 L 18.445312 17.625 L 18.617188 17.28125 L 18.628906 17.25 L 18.644531 17.21875 L 18.667969 17.15625 L 18.695312 17.09375 L 18.742188 17 L 18.769531 16.9375 L 18.792969 16.875 L 18.828125 16.820312 L 18.851562 16.796875 L 18.878906 16.777344 L 18.9375 16.75 L 19 16.730469 L 19.09375 16.707031 L 19.125 16.695312 L 19.15625 16.6875 L 19.1875 16.675781 L 19.3125 16.636719 L 19.40625 16.605469 L 19.46875 16.582031 L 19.53125 16.5625 L 19.5625 16.554688 L 19.59375 16.542969 L 19.6875 16.519531 L 19.75 16.5 L 19.78125 16.488281 L 19.84375 16.46875 L 20.03125 16.40625 L 20.09375 16.386719 L 20.125 16.375 L 20.1875 16.355469 L 20.28125 16.332031 L 20.40625 16.292969 L 20.5625 16.238281 L 20.6875 16.199219 L 20.78125 16.175781 L 20.8125 16.164062 L 20.84375 16.15625 L 20.90625 16.136719 L 20.96875 16.113281 L 21 16.105469 L 21.15625 16.046875 L 21.171875 16.039062 L 21.21875 16.03125 L 21.207031 15.984375 L 21.207031 15.9375 L 21.210938 15.875 L 21.21875 15.8125 L 21.21875 12.9375 L 21.210938 12.875 L 21.207031 12.8125 L 21.207031 12.765625 L 21.21875 12.71875 L 21.171875 12.710938 L 21.15625 12.703125 L 21.09375 12.683594 L 21.03125 12.660156 L 20.96875 12.644531 L 20.84375 12.605469 L 20.6875 12.550781 L 20.5625 12.511719 L 20.46875 12.488281 L 20.40625 12.46875 L 20.375 12.457031 L 20.3125 12.4375 L 20.125 12.375 L 20.0625 12.355469 L 20.03125 12.34375 L 19.96875 12.324219 L 19.875 12.300781 L 19.75 12.261719 L 19.59375 12.207031 L 19.46875 12.167969 L 19.375 12.144531 L 19.34375 12.132812 L 19.3125 12.125 L 19.25 12.105469 L 19.0625 12.042969 L 19 12.019531 L 18.9375 12 L 18.90625 11.988281 L 18.851562 11.953125 L 18.828125 11.929688 L 18.792969 11.875 L 18.769531 11.8125 L 18.742188 11.75 L 18.707031 11.65625 L 18.679688 11.59375 L 18.539062 11.3125 L 18.527344 11.28125 L 18.511719 11.25 L 18.488281 11.1875 L 18.472656 11.15625 L 18.460938 11.125 L 18.179688 10.5625 L 18.152344 10.5 L 18.140625 10.46875 L 18.136719 10.40625 L 18.152344 10.34375 L 18.167969 10.3125 L 18.207031 10.25 L 18.242188 10.1875 L 18.445312 9.78125 L 18.464844 9.75 L 18.480469 9.71875 L 18.519531 9.65625 L 18.554688 9.59375 L 18.726562 9.25 L 18.746094 9.21875 L 18.761719 9.1875 L 18.800781 9.125 L 18.816406 9.09375 L 18.835938 9.0625 L 19.039062 8.65625 L 19.074219 8.59375 L 19.113281 8.53125 L 19.128906 8.5 L 19.148438 8.46875 L 19.179688 8.40625 L 19.191406 8.375 L 19.21875 8.3125 L 19.25 8.25 L 19.261719 8.21875 L 19.269531 8.203125 L 19.28125 8.15625 L 19.238281 8.132812 L 19.222656 8.117188 L 19.175781 8.0625 L 19.09375 7.96875 L 17.1875 6.0625 L 17.09375 5.980469 L 17.039062 5.933594 L 17.023438 5.917969 L 17 5.875 L 16.953125 5.898438 L 16.90625 5.925781 L 16.84375 5.960938 L 16.3125 6.226562 L 16.28125 6.246094 L 16.25 6.261719 L 16.1875 6.300781 L 16.15625 6.316406 L 16.125 6.335938 L 15.78125 6.507812 L 15.75 6.527344 L 15.71875 6.542969 L 15.65625 6.582031 L 15.625 6.597656 L 15.59375 6.617188 L 15.25 6.789062 L 15.1875 6.824219 L 15.125 6.863281 L 15.09375 6.878906 L 15.0625 6.898438 L 14.84375 7.007812 L 14.8125 7.019531 L 14.75 7.03125 L 14.71875 7.027344 L 14.6875 7.019531 L 14.625 6.992188 L 14.28125 6.820312 L 14.25 6.808594 L 14.21875 6.792969 L 14.15625 6.769531 L 14.125 6.753906 L 14.09375 6.742188 L 13.6875 6.539062 L 13.65625 6.527344 L 13.625 6.511719 L 13.5625 6.488281 L 13.5 6.460938 L 13.46875 6.445312 L 13.40625 6.417969 L 13.25 6.359375 L 13.234375 6.351562 L 13.1875 6.34375 L 13.183594 6.296875 L 13.179688 6.28125 L 13.175781 6.25 L 13.15625 6.1875 L 13.144531 6.15625 L 13.125 6.09375 L 13.0625 5.90625 L 13.042969 5.84375 L 13.03125 5.8125 L 13.023438 5.78125 L 13.011719 5.75 L 12.988281 5.65625 L 12.949219 5.53125 L 12.925781 5.46875 L 12.894531 5.375 L 12.855469 5.25 L 12.832031 5.15625 L 12.8125 5.09375 L 12.800781 5.0625 L 12.78125 5 L 12.71875 4.8125 L 12.699219 4.75 L 12.6875 4.71875 L 12.667969 4.65625 L 12.644531 4.5625 L 12.632812 4.53125 L 12.625 4.5 L 12.613281 4.46875 L 12.59375 4.40625 L 12.582031 4.375 L 12.542969 4.25 L 12.519531 4.1875 L 12.5 4.125 L 12.488281 4.09375 L 12.476562 4.066406 L 12.464844 4.015625 L 12.46875 3.96875 L 9.125 3.96875 M 10.375 10.195312 L 10.40625 10.191406 L 10.46875 10.1875 L 11.15625 10.1875 L 11.25 10.199219 L 11.3125 10.210938 L 11.4375 10.226562 L 11.5 10.238281 L 11.53125 10.242188 L 11.59375 10.257812 L 11.625 10.261719 L 11.6875 10.273438 L 11.75 10.289062 L 11.78125 10.292969 L 12.03125 10.355469 L 12.0625 10.367188 L 12.09375 10.375 L 12.15625 10.394531 L 12.21875 10.417969 L 12.25 10.425781 L 12.34375 10.460938 L 12.40625 10.488281 L 12.46875 10.511719 L 12.5 10.527344 L 12.53125 10.539062 L 12.71875 10.632812 L 12.75 10.652344 L 12.78125 10.667969 L 12.875 10.726562 L 12.9375 10.761719 L 13 10.800781 L 13.0625 10.835938 L 13.09375 10.855469 L 13.21875 10.941406 L 13.4375 11.105469 L 13.46875 11.132812 L 13.53125 11.179688 L 13.5625 11.207031 L 13.59375 11.230469 L 13.6875 11.3125 L 13.84375 11.46875 L 13.925781 11.5625 L 13.949219 11.59375 L 14 11.65625 L 14.03125 11.6875 L 14.082031 11.75 L 14.175781 11.875 L 14.195312 11.90625 L 14.21875 11.9375 L 14.261719 12 L 14.300781 12.0625 L 14.324219 12.09375 L 14.382812 12.1875 L 14.417969 12.25 L 14.457031 12.3125 L 14.472656 12.34375 L 14.492188 12.375 L 14.648438 12.6875 L 14.675781 12.75 L 14.699219 12.8125 L 14.707031 12.84375 L 14.765625 13 L 14.785156 13.0625 L 14.792969 13.09375 L 14.804688 13.125 L 14.820312 13.1875 L 14.832031 13.21875 L 14.894531 13.46875 L 14.898438 13.5 L 14.914062 13.5625 L 14.925781 13.625 L 14.945312 13.78125 L 14.957031 13.84375 L 14.96875 13.9375 L 14.96875 14 L 14.980469 14.09375 L 14.988281 14.125 L 15 14.21875 L 15 14.53125 L 14.988281 14.625 L 14.980469 14.65625 L 14.96875 14.75 L 14.96875 14.8125 L 14.957031 14.90625 L 14.949219 14.9375 L 14.9375 15 L 14.9375 15.03125 L 14.925781 15.09375 L 14.917969 15.125 L 14.914062 15.15625 L 14.898438 15.21875 L 14.894531 15.25 L 14.886719 15.28125 L 14.882812 15.3125 L 14.867188 15.375 L 14.863281 15.40625 L 14.832031 15.53125 L 14.820312 15.5625 L 14.800781 15.625 L 14.792969 15.65625 L 14.730469 15.84375 L 14.707031 15.90625 L 14.6875 15.96875 L 14.675781 16 L 14.648438 16.0625 L 14.523438 16.3125 L 14.503906 16.34375 L 14.488281 16.375 L 14.449219 16.4375 L 14.414062 16.5 L 14.355469 16.59375 L 14.320312 16.65625 L 14.28125 16.71875 L 14.238281 16.78125 L 14.050781 17.03125 L 14 17.09375 L 13.96875 17.125 L 13.917969 17.1875 L 13.894531 17.21875 L 13.839844 17.28125 L 13.78125 17.34375 L 13.75 17.375 L 13.65625 17.457031 L 13.625 17.480469 L 13.5625 17.53125 L 13.53125 17.5625 L 13.46875 17.613281 L 13.21875 17.800781 L 13.1875 17.820312 L 13.15625 17.84375 L 13.09375 17.886719 L 13 17.945312 L 12.9375 17.980469 L 12.875 18.019531 L 12.84375 18.035156 L 12.8125 18.054688 L 12.4375 18.242188 L 12.375 18.269531 L 12.3125 18.292969 L 12.28125 18.300781 L 12.09375 18.363281 L 12.0625 18.375 L 12.03125 18.382812 L 12 18.394531 L 11.75 18.457031 L 11.71875 18.460938 L 11.65625 18.476562 L 11.53125 18.5 L 11.5 18.5 L 11.375 18.523438 L 11.21875 18.542969 L 11.1875 18.550781 L 11.09375 18.5625 L 10.5 18.5625 L 10.40625 18.550781 L 10.375 18.542969 L 10.1875 18.519531 L 10.125 18.507812 L 10.09375 18.5 L 10.0625 18.5 L 10 18.488281 L 9.96875 18.480469 L 9.9375 18.476562 L 9.875 18.460938 L 9.84375 18.457031 L 9.59375 18.394531 L 9.5625 18.382812 L 9.5 18.363281 L 9.46875 18.355469 L 9.375 18.324219 L 9.3125 18.300781 L 9.28125 18.292969 L 9.21875 18.269531 L 9.15625 18.242188 L 8.78125 18.054688 L 8.75 18.035156 L 8.71875 18.019531 L 8.65625 17.980469 L 8.59375 17.945312 L 8.5 17.886719 L 8.46875 17.863281 L 8.40625 17.824219 L 8.28125 17.738281 L 8.15625 17.636719 L 8.125 17.613281 L 8.09375 17.585938 L 8.03125 17.539062 L 8 17.511719 L 7.96875 17.488281 L 7.90625 17.433594 L 7.84375 17.375 L 7.78125 17.3125 L 7.699219 17.21875 L 7.675781 17.1875 L 7.648438 17.15625 L 7.625 17.125 L 7.59375 17.09375 L 7.542969 17.03125 L 7.355469 16.78125 L 7.269531 16.65625 L 7.210938 16.5625 L 7.175781 16.5 L 7.136719 16.4375 L 7.121094 16.40625 L 7.101562 16.375 L 6.945312 16.0625 L 6.917969 16 L 6.90625 15.96875 L 6.886719 15.90625 L 6.863281 15.84375 L 6.832031 15.75 L 6.8125 15.6875 L 6.800781 15.65625 L 6.792969 15.625 L 6.773438 15.5625 L 6.761719 15.53125 L 6.699219 15.28125 L 6.695312 15.25 L 6.679688 15.1875 L 6.675781 15.15625 L 6.667969 15.125 L 6.648438 14.96875 L 6.636719 14.90625 L 6.625 14.8125 L 6.625 14.75 L 6.613281 14.65625 L 6.605469 14.625 L 6.59375 14.53125 L 6.59375 14.21875 L 6.605469 14.125 L 6.613281 14.09375 L 6.625 14 L 6.625 13.90625 L 6.636719 13.8125 L 6.644531 13.78125 L 6.65625 13.71875 L 6.65625 13.6875 L 6.667969 13.625 L 6.675781 13.59375 L 6.679688 13.5625 L 6.695312 13.5 L 6.699219 13.46875 L 6.761719 13.21875 L 6.773438 13.1875 L 6.789062 13.125 L 6.800781 13.09375 L 6.824219 13 L 6.84375 12.9375 L 6.867188 12.875 L 6.894531 12.8125 L 6.917969 12.75 L 6.933594 12.71875 L 6.945312 12.6875 L 7.101562 12.375 L 7.121094 12.34375 L 7.136719 12.3125 L 7.175781 12.25 L 7.210938 12.1875 L 7.269531 12.09375 L 7.292969 12.0625 L 7.332031 12 L 7.375 11.9375 L 7.398438 11.90625 L 7.417969 11.875 L 7.511719 11.75 L 7.539062 11.71875 L 7.585938 11.65625 L 7.636719 11.59375 L 7.71875 11.5 L 7.90625 11.3125 L 8 11.230469 L 8.03125 11.207031 L 8.125 11.125 L 8.1875 11.074219 L 8.21875 11.054688 L 8.28125 11.007812 L 8.3125 10.988281 L 8.40625 10.917969 L 8.46875 10.875 L 8.5 10.855469 L 8.5625 10.8125 L 8.59375 10.792969 L 8.65625 10.757812 L 8.6875 10.742188 L 8.75 10.707031 L 8.8125 10.667969 L 8.84375 10.652344 L 8.875 10.632812 L 9.0625 10.539062 L 9.09375 10.527344 L 9.125 10.511719 L 9.1875 10.488281 L 9.25 10.460938 L 9.34375 10.425781 L 9.40625 10.40625 L 9.4375 10.398438 L 9.46875 10.386719 L 9.5625 10.363281 L 9.59375 10.351562 L 9.65625 10.335938 L 9.6875 10.324219 L 9.8125 10.292969 L 9.84375 10.289062 L 9.90625 10.273438 L 9.9375 10.269531 L 9.96875 10.261719 L 10 10.257812 L 10.0625 10.242188 L 10.09375 10.238281 L 10.15625 10.226562 L 10.28125 10.210938 L 10.34375 10.199219 L 10.375 10.195312 M 24.71875 16.65625 L 24.703125 16.703125 L 24.699219 16.71875 L 24.675781 16.78125 L 24.65625 16.84375 L 24.605469 17 L 24.574219 17.09375 L 24.5625 17.125 L 24.542969 17.1875 L 24.519531 17.28125 L 24.507812 17.3125 L 24.5 17.34375 L 24.480469 17.40625 L 24.386719 17.6875 L 24.375 17.71875 L 24.367188 17.75 L 24.355469 17.78125 L 24.332031 17.875 L 24.308594 17.9375 L 24.273438 17.996094 L 24.21875 18.042969 L 24.125 18.089844 L 24.09375 18.101562 L 23.6875 18.304688 L 23.65625 18.316406 L 23.59375 18.34375 L 23.5 18.378906 L 23.4375 18.382812 L 23.375 18.367188 L 23 18.179688 L 22.9375 18.144531 L 22.875 18.105469 L 22.84375 18.089844 L 22.8125 18.070312 L 22.40625 17.867188 L 22.34375 17.832031 L 22.3125 17.8125 L 22.25 17.785156 L 22.1875 17.761719 L 22.171875 17.757812 L 22.125 17.75 L 20.75 19.125 L 20.773438 19.171875 L 20.800781 19.21875 L 20.835938 19.28125 L 21.007812 19.625 L 21.027344 19.65625 L 21.042969 19.6875 L 21.082031 19.75 L 21.097656 19.78125 L 21.117188 19.8125 L 21.289062 20.15625 L 21.308594 20.1875 L 21.34375 20.25 L 21.363281 20.28125 L 21.398438 20.34375 L 21.414062 20.40625 L 21.414062 20.4375 L 21.398438 20.5 L 21.382812 20.53125 L 21.371094 20.5625 L 21.355469 20.59375 L 21.332031 20.65625 L 21.304688 20.71875 L 21.132812 21.0625 L 21.121094 21.09375 L 21.074219 21.1875 L 21.027344 21.242188 L 20.96875 21.277344 L 20.84375 21.324219 L 20.8125 21.332031 L 20.75 21.355469 L 20.625 21.394531 L 20.53125 21.417969 L 20.5 21.429688 L 20.46875 21.4375 L 20.40625 21.457031 L 20.25 21.511719 L 20.125 21.550781 L 20.03125 21.574219 L 19.90625 21.613281 L 19.75 21.671875 L 19.703125 21.683594 L 19.65625 21.6875 L 19.671875 21.75 L 19.671875 21.8125 L 19.660156 21.90625 L 19.65625 21.96875 L 19.65625 22.09375 L 19.660156 22.15625 L 19.664062 22.1875 L 19.660156 22.25 L 19.65625 22.28125 L 19.65625 22.6875 L 19.660156 22.75 L 19.660156 22.78125 L 19.664062 22.8125 L 19.660156 22.84375 L 19.660156 22.875 L 19.65625 22.9375 L 19.65625 23.25 L 19.664062 23.375 L 19.667969 23.40625 L 19.667969 23.46875 L 19.664062 23.5 L 19.664062 23.53125 L 19.667969 23.59375 L 19.667969 23.640625 L 19.65625 23.6875 L 19.71875 23.71875 L 19.75 23.730469 L 19.875 23.769531 L 19.90625 23.78125 L 19.96875 23.800781 L 20.0625 23.824219 L 20.09375 23.835938 L 20.15625 23.855469 L 20.1875 23.863281 L 20.28125 23.894531 L 20.4375 23.949219 L 20.5 23.96875 L 20.53125 23.976562 L 20.5625 23.988281 L 20.65625 24.011719 L 20.71875 24.03125 L 20.75 24.042969 L 20.84375 24.074219 L 20.875 24.082031 L 20.90625 24.09375 L 20.96875 24.113281 L 21 24.117188 L 21.015625 24.121094 L 21.0625 24.125 L 21.070312 24.171875 L 21.089844 24.21875 L 21.101562 24.25 L 21.179688 24.40625 L 21.191406 24.4375 L 21.207031 24.46875 L 21.230469 24.53125 L 21.257812 24.59375 L 21.398438 24.875 L 21.414062 24.9375 L 21.414062 24.96875 L 21.398438 25.03125 L 21.210938 25.40625 L 21.175781 25.46875 L 21.136719 25.53125 L 21.121094 25.5625 L 21.101562 25.59375 L 20.929688 25.9375 L 20.894531 26 L 20.855469 26.0625 L 20.824219 26.125 L 20.8125 26.15625 L 20.78125 26.21875 L 20.769531 26.234375 L 20.75 26.28125 L 20.792969 26.304688 L 20.808594 26.320312 L 20.855469 26.375 L 20.910156 26.4375 L 20.96875 26.5 L 21.9375 27.46875 L 22 27.527344 L 22.058594 27.578125 L 22.085938 27.605469 L 22.101562 27.617188 L 22.125 27.65625 L 22.171875 27.648438 L 22.21875 27.628906 L 22.25 27.617188 L 22.4375 27.523438 L 22.5 27.488281 L 22.5625 27.449219 L 22.59375 27.433594 L 22.625 27.414062 L 22.96875 27.242188 L 23.03125 27.207031 L 23.09375 27.167969 L 23.125 27.152344 L 23.15625 27.132812 L 23.34375 27.039062 L 23.40625 27.011719 L 23.4375 27.003906 L 23.46875 27 L 23.5 27.003906 L 23.53125 27.011719 L 23.59375 27.039062 L 24 27.242188 L 24.0625 27.269531 L 24.125 27.292969 L 24.1875 27.320312 L 24.242188 27.359375 L 24.265625 27.382812 L 24.300781 27.4375 L 24.3125 27.46875 L 24.332031 27.53125 L 24.355469 27.59375 L 24.394531 27.71875 L 24.417969 27.8125 L 24.429688 27.84375 L 24.4375 27.875 L 24.457031 27.9375 L 24.511719 28.09375 L 24.550781 28.21875 L 24.574219 28.3125 L 24.585938 28.34375 L 24.644531 28.53125 L 24.703125 28.6875 L 24.710938 28.703125 L 24.71875 28.75 L 26.59375 28.75 L 26.621094 28.746094 L 26.671875 28.742188 L 26.71875 28.75 L 26.734375 28.703125 L 26.742188 28.6875 L 26.765625 28.625 L 26.785156 28.5625 L 26.792969 28.53125 L 26.8125 28.46875 L 26.824219 28.4375 L 26.84375 28.375 L 26.90625 28.1875 L 26.925781 28.125 L 26.9375 28.09375 L 26.957031 28.03125 L 26.980469 27.9375 L 26.992188 27.90625 L 27 27.875 L 27.011719 27.84375 L 27.03125 27.78125 L 27.074219 27.65625 L 27.113281 27.53125 L 27.121094 27.5 L 27.140625 27.4375 L 27.171875 27.382812 L 27.222656 27.339844 L 27.25 27.324219 L 27.3125 27.300781 L 27.375 27.273438 L 27.65625 27.132812 L 27.6875 27.121094 L 27.71875 27.105469 L 27.78125 27.082031 L 27.84375 27.054688 L 27.902344 27.023438 L 27.929688 27.007812 L 27.945312 27 L 27.96875 26.96875 L 28.015625 27 L 28.40625 27.195312 L 28.4375 27.214844 L 28.46875 27.230469 L 28.53125 27.269531 L 28.5625 27.285156 L 28.59375 27.304688 L 28.9375 27.476562 L 29 27.511719 L 29.0625 27.550781 L 29.125 27.582031 L 29.25 27.636719 L 29.265625 27.644531 L 29.3125 27.65625 L 29.335938 27.617188 L 29.351562 27.605469 L 29.378906 27.578125 L 29.4375 27.527344 L 29.5 27.46875 L 30.5 26.46875 L 30.558594 26.40625 L 30.613281 26.347656 L 30.632812 26.320312 L 30.652344 26.296875 L 30.664062 26.285156 L 30.6875 26.25 L 30.652344 26.203125 L 30.644531 26.1875 L 30.625 26.15625 L 30.597656 26.09375 L 30.585938 26.0625 L 30.523438 25.9375 L 30.488281 25.875 L 30.449219 25.8125 L 30.433594 25.78125 L 30.414062 25.75 L 30.351562 25.625 L 30.339844 25.59375 L 30.3125 25.53125 L 30.28125 25.46875 L 30.242188 25.40625 L 30.226562 25.375 L 30.167969 25.28125 L 30.152344 25.25 L 30.132812 25.21875 L 30.070312 25.09375 L 30.042969 25.03125 L 30.035156 25 L 30.03125 24.96875 L 30.042969 24.90625 L 30.054688 24.875 L 30.082031 24.8125 L 30.105469 24.75 L 30.121094 24.71875 L 30.148438 24.65625 L 30.304688 24.34375 L 30.316406 24.3125 L 30.332031 24.28125 L 30.351562 24.21875 L 30.367188 24.171875 L 30.375 24.125 L 30.421875 24.121094 L 30.4375 24.117188 L 30.46875 24.113281 L 30.59375 24.074219 L 30.625 24.0625 L 30.65625 24.054688 L 30.6875 24.042969 L 30.78125 24.019531 L 30.84375 24 L 30.875 23.988281 L 31 23.949219 L 31.03125 23.9375 L 31.09375 23.917969 L 31.15625 23.894531 L 31.21875 23.875 L 31.25 23.867188 L 31.28125 23.855469 L 31.375 23.832031 L 31.40625 23.820312 L 31.4375 23.8125 L 31.46875 23.800781 L 31.5625 23.769531 L 31.625 23.75 L 31.65625 23.738281 L 31.6875 23.730469 L 31.71875 23.71875 L 31.78125 23.6875 L 31.773438 23.625 L 31.777344 23.5625 L 31.78125 23.53125 L 31.78125 21.84375 L 31.777344 21.816406 L 31.773438 21.765625 L 31.777344 21.738281 L 31.78125 21.6875 L 31.734375 21.679688 L 31.71875 21.675781 L 31.6875 21.664062 L 31.625 21.644531 L 31.59375 21.636719 L 31.53125 21.613281 L 31.46875 21.59375 L 31.4375 21.582031 L 31.3125 21.542969 L 31.21875 21.519531 L 31.09375 21.480469 L 30.9375 21.425781 L 30.875 21.40625 L 30.84375 21.398438 L 30.8125 21.386719 L 30.71875 21.363281 L 30.65625 21.34375 L 30.625 21.332031 L 30.5625 21.3125 L 30.46875 21.277344 L 30.441406 21.261719 L 30.414062 21.242188 L 30.390625 21.214844 L 30.351562 21.15625 L 30.320312 21.09375 L 30.292969 21.03125 L 30.234375 20.875 L 30.15625 20.71875 L 30.136719 20.6875 L 30.121094 20.65625 L 30.101562 20.625 L 30.070312 20.5625 L 30.042969 20.5 L 30.035156 20.46875 L 30.03125 20.4375 L 30.035156 20.40625 L 30.042969 20.375 L 30.070312 20.3125 L 30.226562 20 L 30.261719 19.9375 L 30.300781 19.875 L 30.335938 19.8125 L 30.539062 19.40625 L 30.558594 19.375 L 30.59375 19.3125 L 30.640625 19.21875 L 30.6875 19.15625 L 30.664062 19.109375 L 30.648438 19.09375 L 30.59375 19.03125 L 29.3125 17.75 L 29.265625 17.757812 L 29.21875 17.777344 L 29.1875 17.789062 L 28.75 18.007812 L 28.71875 18.027344 L 28.6875 18.042969 L 28.625 18.082031 L 28.59375 18.097656 L 28.5625 18.117188 L 28.15625 18.320312 L 28.09375 18.355469 L 28.03125 18.382812 L 27.96875 18.386719 L 27.90625 18.367188 L 27.6875 18.257812 L 27.625 18.230469 L 27.5625 18.207031 L 27.53125 18.191406 L 27.5 18.179688 L 27.34375 18.101562 L 27.3125 18.089844 L 27.25 18.058594 L 27.222656 18.042969 L 27.171875 17.996094 L 27.152344 17.96875 L 27.125 17.90625 L 27.105469 17.84375 L 27.082031 17.78125 L 27.050781 17.6875 L 27.011719 17.5625 L 26.988281 17.46875 L 26.976562 17.4375 L 26.96875 17.40625 L 26.949219 17.34375 L 26.925781 17.28125 L 26.894531 17.1875 L 26.855469 17.0625 L 26.832031 16.96875 L 26.792969 16.84375 L 26.769531 16.78125 L 26.742188 16.71875 L 26.734375 16.703125 L 26.71875 16.65625 L 24.71875 16.65625 M 25.625 20.351562 L 25.65625 20.347656 L 25.71875 20.34375 L 25.75 20.34375 L 25.8125 20.347656 L 25.875 20.355469 L 25.90625 20.363281 L 26 20.375 L 26.0625 20.378906 L 26.125 20.386719 L 26.1875 20.398438 L 26.25 20.414062 L 26.28125 20.417969 L 26.3125 20.429688 L 26.375 20.445312 L 26.40625 20.457031 L 26.5 20.480469 L 26.5625 20.5 L 26.59375 20.511719 L 26.65625 20.539062 L 26.84375 20.632812 L 26.90625 20.667969 L 26.96875 20.707031 L 27 20.730469 L 27.0625 20.769531 L 27.1875 20.855469 L 27.28125 20.9375 L 27.46875 21.125 L 27.550781 21.21875 L 27.621094 21.3125 L 27.738281 21.5 L 27.753906 21.53125 L 27.773438 21.5625 L 27.867188 21.75 L 27.894531 21.8125 L 27.917969 21.875 L 27.957031 22 L 27.96875 22.03125 L 27.988281 22.09375 L 27.992188 22.125 L 28.007812 22.1875 L 28.03125 22.3125 L 28.03125 22.34375 L 28.042969 22.40625 L 28.050781 22.4375 L 28.0625 22.53125 L 28.0625 22.84375 L 28.050781 22.9375 L 28.039062 23 L 28.019531 23.15625 L 27.957031 23.40625 L 27.945312 23.4375 L 27.9375 23.46875 L 27.917969 23.53125 L 27.894531 23.59375 L 27.878906 23.625 L 27.867188 23.65625 L 27.804688 23.78125 L 27.769531 23.84375 L 27.730469 23.90625 L 27.601562 24.09375 L 27.582031 24.125 L 27.53125 24.1875 L 27.5 24.21875 L 27.476562 24.246094 L 27.449219 24.273438 L 27.429688 24.300781 L 27.40625 24.324219 L 27.363281 24.375 L 27.308594 24.425781 L 27.25 24.476562 L 27.21875 24.5 L 27.15625 24.550781 L 27.125 24.570312 L 27.09375 24.59375 L 27.03125 24.636719 L 26.96875 24.675781 L 26.9375 24.699219 L 26.875 24.738281 L 26.8125 24.773438 L 26.6875 24.835938 L 26.65625 24.847656 L 26.625 24.863281 L 26.5625 24.886719 L 26.5 24.90625 L 26.46875 24.914062 L 26.4375 24.925781 L 26.1875 24.988281 L 26.125 25 L 26.09375 25 L 26.0625 25.007812 L 26.03125 25.011719 L 26 25.019531 L 25.90625 25.03125 L 25.5625 25.03125 L 25.46875 25.019531 L 25.4375 25.011719 L 25.25 24.988281 L 25.03125 24.933594 L 24.90625 24.894531 L 24.875 24.882812 L 24.8125 24.855469 L 24.78125 24.84375 L 24.71875 24.816406 L 24.65625 24.78125 L 24.625 24.761719 L 24.5625 24.726562 L 24.53125 24.710938 L 24.46875 24.675781 L 24.40625 24.632812 L 24.375 24.613281 L 24.25 24.519531 L 24.1875 24.464844 L 24.125 24.40625 L 24 24.28125 L 23.941406 24.21875 L 23.886719 24.15625 L 23.816406 24.0625 L 23.699219 23.875 L 23.683594 23.84375 L 23.664062 23.8125 L 23.570312 23.625 L 23.542969 23.5625 L 23.519531 23.5 L 23.5 23.4375 L 23.492188 23.40625 L 23.480469 23.375 L 23.449219 23.25 L 23.445312 23.21875 L 23.429688 23.15625 L 23.417969 23.09375 L 23.394531 22.90625 L 23.386719 22.875 L 23.375 22.78125 L 23.375 22.625 L 23.386719 22.53125 L 23.394531 22.5 L 23.40625 22.40625 L 23.410156 22.34375 L 23.417969 22.28125 L 23.429688 22.21875 L 23.445312 22.15625 L 23.449219 22.125 L 23.46875 22.0625 L 23.480469 22.03125 L 23.488281 22 L 23.519531 21.90625 L 23.542969 21.84375 L 23.550781 21.8125 L 23.574219 21.75 L 23.589844 21.71875 L 23.601562 21.6875 L 23.632812 21.625 L 23.652344 21.59375 L 23.667969 21.5625 L 23.707031 21.5 L 23.742188 21.4375 L 23.761719 21.40625 L 23.804688 21.34375 L 23.824219 21.3125 L 23.925781 21.1875 L 23.949219 21.15625 L 24.003906 21.09375 L 24.0625 21.03125 L 24.09375 21 L 24.1875 20.917969 L 24.375 20.777344 L 24.4375 20.734375 L 24.5625 20.65625 L 24.625 20.621094 L 24.65625 20.601562 L 24.71875 20.570312 L 24.78125 20.542969 L 24.84375 20.519531 L 24.96875 20.480469 L 25 20.46875 L 25.03125 20.460938 L 25.0625 20.449219 L 25.1875 20.417969 L 25.21875 20.414062 L 25.28125 20.398438 L 25.34375 20.386719 L 25.40625 20.378906 L 25.46875 20.375 L 25.5625 20.363281 Z M 25.625 20.351562 "/>
</g>
</svg>
