<svg id="svg" version="1.1" xmlns="http://www.w3.org/2000/svg" xmlns:xlink="http://www.w3.org/1999/xlink" width="400" height="400" viewBox="0, 0, 400,400"><g id="svgg"><path id="path0" d="M181.200 58.740 C 181.200 58.928,178.635 59.207,175.500 59.361 C 172.365 59.515,169.740 59.812,169.667 60.020 C 169.593 60.229,168.828 60.400,167.967 60.400 C 167.105 60.400,166.400 60.559,166.400 60.753 C 166.400 60.947,165.050 61.233,163.400 61.387 C 161.750 61.542,160.400 61.833,160.400 62.034 C 160.400 62.235,159.770 62.400,159.000 62.400 C 158.230 62.400,157.600 62.559,157.600 62.754 C 157.600 62.949,156.610 63.232,155.400 63.383 C 154.190 63.534,153.200 63.825,153.200 64.029 C 153.200 64.233,152.750 64.400,152.200 64.400 C 151.650 64.400,151.200 64.563,151.200 64.762 C 151.200 64.962,150.300 65.249,149.200 65.400 C 148.100 65.551,147.200 65.838,147.200 66.038 C 147.200 66.237,146.840 66.400,146.400 66.400 C 145.960 66.400,145.600 66.556,145.600 66.748 C 145.600 66.939,144.957 67.200,144.170 67.327 C 142.513 67.596,140.400 68.466,140.400 68.880 C 140.400 69.036,139.770 69.282,139.000 69.426 C 138.230 69.571,137.600 69.849,137.600 70.045 C 137.600 70.240,137.330 70.400,137.000 70.400 C 136.670 70.400,136.400 70.572,136.400 70.782 C 136.400 70.992,135.770 71.282,135.000 71.426 C 134.230 71.571,133.600 71.849,133.600 72.045 C 133.600 72.240,133.251 72.400,132.824 72.400 C 132.397 72.400,131.948 72.560,131.827 72.756 C 131.706 72.951,131.122 73.233,130.527 73.382 C 129.933 73.532,129.167 73.976,128.824 74.370 C 128.481 74.763,127.795 75.213,127.300 75.370 C 126.805 75.526,126.400 75.822,126.400 76.027 C 126.400 76.232,126.130 76.400,125.800 76.400 C 125.470 76.400,125.200 76.580,125.200 76.800 C 125.200 77.020,124.834 77.200,124.387 77.200 C 123.941 77.200,123.471 77.470,123.345 77.800 C 123.218 78.130,122.774 78.400,122.357 78.400 C 121.941 78.400,121.600 78.560,121.600 78.757 C 121.600 78.953,121.150 79.226,120.600 79.364 C 120.050 79.502,119.600 79.792,119.600 80.008 C 119.600 80.223,119.396 80.400,119.146 80.400 C 118.896 80.400,118.275 80.850,117.765 81.400 C 117.255 81.950,116.650 82.400,116.419 82.400 C 116.189 82.400,115.677 82.715,115.283 83.100 C 114.888 83.485,114.058 84.160,113.438 84.600 C 112.818 85.040,112.074 85.625,111.784 85.900 C 111.494 86.175,111.140 86.400,110.997 86.400 C 110.854 86.400,110.024 87.120,109.153 88.000 C 108.282 88.880,107.401 89.600,107.195 89.600 C 106.696 89.600,93.200 103.139,93.200 103.639 C 93.200 103.854,92.415 104.793,91.455 105.725 C 90.496 106.658,89.587 107.812,89.435 108.290 C 89.283 108.768,88.808 109.270,88.380 109.406 C 87.951 109.543,87.600 109.977,87.600 110.371 C 87.600 110.765,87.150 111.426,86.600 111.839 C 86.050 112.252,85.600 112.789,85.600 113.033 C 85.600 113.276,85.149 113.999,84.598 114.638 C 84.046 115.277,83.481 116.160,83.340 116.600 C 83.200 117.040,82.752 117.691,82.344 118.046 C 81.935 118.402,81.490 119.251,81.353 119.934 C 81.210 120.651,80.787 121.277,80.352 121.415 C 79.939 121.546,79.600 121.980,79.600 122.378 C 79.600 122.776,79.330 123.326,79.000 123.600 C 78.670 123.874,78.400 124.346,78.400 124.649 C 78.400 124.952,78.234 125.200,78.032 125.200 C 77.829 125.200,77.545 125.740,77.400 126.400 C 77.255 127.060,76.971 127.600,76.768 127.600 C 76.566 127.600,76.400 127.960,76.400 128.400 C 76.400 128.840,76.234 129.200,76.032 129.200 C 75.829 129.200,75.545 129.740,75.400 130.400 C 75.255 131.060,74.971 131.600,74.768 131.600 C 74.566 131.600,74.400 131.960,74.400 132.400 C 74.400 132.840,74.234 133.200,74.032 133.200 C 73.829 133.200,73.545 133.740,73.400 134.400 C 73.255 135.060,72.971 135.600,72.768 135.600 C 72.566 135.600,72.400 136.050,72.400 136.600 C 72.400 137.150,72.231 137.600,72.025 137.600 C 71.818 137.600,71.528 138.410,71.379 139.400 C 71.231 140.390,70.950 141.200,70.755 141.200 C 70.560 141.200,70.400 141.650,70.400 142.200 C 70.400 142.750,70.222 143.200,70.005 143.200 C 69.787 143.200,69.494 143.920,69.354 144.800 C 69.213 145.680,68.941 146.400,68.749 146.400 C 68.557 146.400,68.400 146.850,68.400 147.400 C 68.400 147.950,68.229 148.400,68.020 148.400 C 67.811 148.400,67.518 149.480,67.368 150.800 C 67.219 152.120,66.940 153.200,66.748 153.200 C 66.557 153.200,66.400 153.740,66.400 154.400 C 66.400 155.060,66.238 155.600,66.041 155.600 C 65.843 155.600,65.555 156.860,65.400 158.400 C 65.245 159.940,64.957 161.200,64.759 161.200 C 64.562 161.200,64.400 161.909,64.400 162.776 C 64.400 163.643,64.238 164.453,64.040 164.576 C 63.841 164.698,63.548 166.914,63.389 169.499 C 63.229 172.085,62.929 174.308,62.722 174.440 C 62.226 174.757,62.220 200.437,62.715 200.760 C 62.918 200.892,63.212 203.070,63.367 205.600 C 63.523 208.130,63.819 210.260,64.025 210.333 C 64.231 210.407,64.400 211.172,64.400 212.033 C 64.400 212.895,64.554 213.600,64.743 213.600 C 64.932 213.600,65.203 214.725,65.347 216.100 C 65.490 217.475,65.786 218.660,66.004 218.733 C 66.222 218.807,66.400 219.482,66.400 220.233 C 66.400 220.985,66.557 221.600,66.748 221.600 C 66.940 221.600,67.219 222.680,67.368 224.000 C 67.518 225.320,67.811 226.400,68.020 226.400 C 68.229 226.400,68.400 226.850,68.400 227.400 C 68.400 227.950,68.556 228.400,68.748 228.400 C 68.939 228.400,69.200 229.043,69.327 229.830 C 69.591 231.453,70.464 233.600,70.860 233.600 C 71.006 233.600,71.249 234.500,71.400 235.600 C 71.551 236.700,71.838 237.600,72.038 237.600 C 72.237 237.600,72.400 237.870,72.400 238.200 C 72.400 238.530,72.560 238.800,72.755 238.800 C 72.951 238.800,73.229 239.430,73.374 240.200 C 73.518 240.970,73.808 241.600,74.018 241.600 C 74.228 241.600,74.400 241.870,74.400 242.200 C 74.400 242.530,74.560 242.800,74.755 242.800 C 74.951 242.800,75.229 243.430,75.374 244.200 C 75.518 244.970,75.808 245.600,76.018 245.600 C 76.228 245.600,76.400 245.870,76.400 246.200 C 76.400 246.530,76.560 246.800,76.755 246.800 C 76.951 246.800,77.229 247.430,77.374 248.200 C 77.518 248.970,77.808 249.600,78.018 249.600 C 78.228 249.600,78.400 249.870,78.400 250.200 C 78.400 250.530,78.580 250.800,78.800 250.800 C 79.020 250.800,79.200 251.166,79.200 251.613 C 79.200 252.059,79.470 252.529,79.800 252.655 C 80.130 252.782,80.400 253.226,80.400 253.643 C 80.400 254.059,80.577 254.400,80.792 254.400 C 81.008 254.400,81.298 254.850,81.436 255.400 C 81.574 255.950,81.847 256.400,82.043 256.400 C 82.240 256.400,82.400 256.670,82.400 257.000 C 82.400 257.330,82.568 257.600,82.773 257.600 C 82.978 257.600,83.274 258.005,83.430 258.500 C 83.587 258.995,84.023 259.670,84.400 260.000 C 84.777 260.330,85.211 260.996,85.363 261.480 C 85.516 261.963,85.992 262.470,86.420 262.606 C 86.849 262.743,87.200 263.177,87.200 263.571 C 87.200 263.965,87.650 264.626,88.200 265.039 C 88.750 265.452,89.200 266.009,89.200 266.277 C 89.200 266.545,89.628 267.192,90.152 267.716 C 90.676 268.239,91.225 269.048,91.373 269.513 C 91.520 269.979,91.983 270.467,92.400 270.600 C 92.817 270.733,93.267 271.183,93.400 271.600 C 93.533 272.017,93.983 272.467,94.400 272.600 C 94.817 272.733,95.275 273.206,95.417 273.652 C 95.763 274.742,103.815 282.800,104.558 282.800 C 104.882 282.800,105.257 283.151,105.394 283.580 C 105.530 284.008,105.983 284.467,106.400 284.600 C 106.817 284.733,107.267 285.183,107.400 285.600 C 107.533 286.017,107.992 286.470,108.420 286.606 C 108.849 286.743,109.200 287.022,109.200 287.227 C 109.200 287.432,109.404 287.600,109.654 287.600 C 109.904 287.600,110.525 288.050,111.035 288.600 C 111.545 289.150,112.159 289.600,112.400 289.600 C 112.641 289.600,113.255 290.050,113.765 290.600 C 114.275 291.150,114.819 291.600,114.974 291.600 C 115.130 291.600,115.508 291.825,115.815 292.100 C 117.138 293.287,117.591 293.600,117.983 293.600 C 118.212 293.600,118.400 293.768,118.400 293.973 C 118.400 294.178,118.805 294.474,119.300 294.630 C 119.795 294.787,120.470 295.223,120.800 295.600 C 121.130 295.977,121.805 296.413,122.300 296.570 C 122.795 296.726,123.200 297.022,123.200 297.227 C 123.200 297.432,123.470 297.600,123.800 297.600 C 124.130 297.600,124.400 297.760,124.400 297.957 C 124.400 298.153,124.850 298.426,125.400 298.564 C 125.950 298.702,126.400 298.992,126.400 299.208 C 126.400 299.423,126.670 299.600,127.000 299.600 C 127.330 299.600,127.600 299.780,127.600 300.000 C 127.600 300.220,127.938 300.400,128.351 300.400 C 128.764 300.400,129.326 300.670,129.600 301.000 C 129.874 301.330,130.436 301.600,130.849 301.600 C 131.262 301.600,131.600 301.760,131.600 301.955 C 131.600 302.151,132.230 302.429,133.000 302.574 C 133.770 302.718,134.400 303.008,134.400 303.218 C 134.400 303.428,134.670 303.600,135.000 303.600 C 135.330 303.600,135.600 303.760,135.600 303.955 C 135.600 304.151,136.230 304.429,137.000 304.574 C 137.770 304.718,138.400 305.008,138.400 305.218 C 138.400 305.428,138.670 305.600,139.000 305.600 C 139.330 305.600,139.600 305.769,139.600 305.975 C 139.600 306.182,140.410 306.472,141.400 306.621 C 142.390 306.769,143.200 307.050,143.200 307.245 C 143.200 307.440,143.449 307.600,143.754 307.600 C 144.059 307.600,144.824 307.869,145.454 308.198 C 146.084 308.526,147.005 308.796,147.500 308.798 C 147.995 308.799,148.400 308.980,148.400 309.200 C 148.400 309.420,148.835 309.600,149.367 309.600 C 149.898 309.600,150.399 309.798,150.480 310.039 C 150.560 310.281,151.475 310.574,152.513 310.691 C 153.551 310.808,154.400 311.061,154.400 311.252 C 154.400 311.443,155.030 311.600,155.800 311.600 C 156.570 311.600,157.200 311.767,157.200 311.971 C 157.200 312.175,158.190 312.466,159.400 312.617 C 160.610 312.768,161.600 313.051,161.600 313.246 C 161.600 313.441,162.230 313.600,163.000 313.600 C 163.770 313.600,164.400 313.761,164.400 313.957 C 164.400 314.153,166.200 314.443,168.400 314.600 C 170.600 314.757,172.400 315.047,172.400 315.243 C 172.400 315.439,173.555 315.600,174.967 315.600 C 176.530 315.600,177.593 315.778,177.685 316.055 C 177.903 316.708,204.496 316.713,204.713 316.061 C 204.809 315.772,205.902 315.600,207.633 315.600 C 209.155 315.600,210.400 315.443,210.400 315.252 C 210.400 315.060,212.020 314.776,214.000 314.622 C 215.980 314.467,217.600 314.173,217.600 313.970 C 217.600 313.766,218.320 313.600,219.200 313.600 C 220.080 313.600,220.800 313.441,220.800 313.247 C 220.800 313.052,221.968 312.768,223.396 312.615 C 224.823 312.462,226.094 312.171,226.219 311.969 C 226.345 311.766,226.887 311.600,227.424 311.600 C 227.961 311.600,228.400 311.437,228.400 311.238 C 228.400 311.038,229.300 310.751,230.400 310.600 C 231.500 310.449,232.400 310.162,232.400 309.962 C 232.400 309.763,232.850 309.600,233.400 309.600 C 233.950 309.600,234.400 309.443,234.400 309.251 C 234.400 309.059,235.120 308.787,236.000 308.646 C 236.880 308.506,237.600 308.213,237.600 307.995 C 237.600 307.778,238.050 307.600,238.600 307.600 C 239.150 307.600,239.600 307.422,239.600 307.205 C 239.600 306.987,240.320 306.694,241.200 306.554 C 242.080 306.413,242.800 306.141,242.800 305.949 C 242.800 305.757,243.160 305.600,243.600 305.600 C 244.040 305.600,244.400 305.434,244.400 305.232 C 244.400 305.029,244.940 304.745,245.600 304.600 C 246.260 304.455,246.800 304.171,246.800 303.968 C 246.800 303.766,247.160 303.600,247.600 303.600 C 248.040 303.600,248.400 303.434,248.400 303.232 C 248.400 303.029,248.940 302.745,249.600 302.600 C 250.260 302.455,250.800 302.171,250.800 301.968 C 250.800 301.766,251.160 301.600,251.600 301.600 C 252.040 301.600,252.400 301.440,252.400 301.243 C 252.400 301.047,252.809 300.784,253.308 300.659 C 253.807 300.534,254.614 300.060,255.100 299.607 C 255.587 299.154,256.523 298.675,257.181 298.544 C 257.838 298.412,258.477 297.988,258.600 297.600 C 258.723 297.212,259.383 296.783,260.066 296.647 C 260.749 296.510,261.598 296.065,261.954 295.656 C 262.309 295.248,262.996 294.789,263.480 294.637 C 263.963 294.484,264.470 294.008,264.606 293.580 C 264.743 293.151,265.207 292.800,265.640 292.800 C 266.072 292.800,266.520 292.553,266.636 292.250 C 266.752 291.948,267.466 291.367,268.223 290.959 C 268.981 290.552,269.600 290.079,269.600 289.909 C 269.600 289.739,269.870 289.600,270.200 289.600 C 270.530 289.600,270.800 289.432,270.800 289.227 C 270.800 289.022,271.151 288.743,271.580 288.606 C 272.008 288.470,272.467 288.017,272.600 287.600 C 272.733 287.183,273.229 286.718,273.703 286.567 C 274.178 286.417,275.787 285.057,277.280 283.547 C 278.773 282.036,280.131 280.794,280.297 280.787 C 280.805 280.764,282.400 279.299,282.400 278.855 C 282.400 278.626,284.178 276.661,286.351 274.488 C 288.525 272.314,290.424 270.155,290.572 269.689 C 290.720 269.222,291.183 268.733,291.600 268.600 C 292.017 268.467,292.480 267.979,292.627 267.513 C 292.775 267.048,293.324 266.239,293.848 265.716 C 294.372 265.192,294.800 264.545,294.800 264.277 C 294.800 264.009,295.250 263.452,295.800 263.039 C 296.350 262.626,296.800 261.965,296.800 261.571 C 296.800 261.177,297.160 260.740,297.600 260.600 C 298.042 260.460,298.400 259.995,298.400 259.560 C 298.400 259.128,298.670 258.671,299.000 258.545 C 299.330 258.418,299.600 257.993,299.600 257.600 C 299.600 257.207,299.870 256.782,300.200 256.655 C 300.530 256.529,300.800 256.059,300.800 255.613 C 300.800 255.166,300.980 254.800,301.200 254.800 C 301.420 254.800,301.600 254.530,301.600 254.200 C 301.600 253.870,301.768 253.600,301.973 253.600 C 302.178 253.600,302.474 253.195,302.630 252.700 C 302.787 252.205,303.237 251.519,303.630 251.176 C 304.024 250.833,304.468 250.068,304.617 249.476 C 304.765 248.884,305.047 248.400,305.243 248.400 C 305.440 248.400,305.600 248.040,305.600 247.600 C 305.600 247.160,305.766 246.800,305.968 246.800 C 306.171 246.800,306.455 246.260,306.600 245.600 C 306.745 244.940,307.029 244.400,307.232 244.400 C 307.434 244.400,307.600 244.040,307.600 243.600 C 307.600 243.160,307.766 242.800,307.968 242.800 C 308.171 242.800,308.455 242.260,308.600 241.600 C 308.745 240.940,309.029 240.400,309.232 240.400 C 309.434 240.400,309.600 239.950,309.600 239.400 C 309.600 238.850,309.769 238.400,309.975 238.400 C 310.182 238.400,310.472 237.590,310.621 236.600 C 310.769 235.610,311.050 234.800,311.245 234.800 C 311.440 234.800,311.600 234.551,311.600 234.246 C 311.600 233.941,311.869 233.176,312.198 232.546 C 312.526 231.916,312.796 230.995,312.798 230.500 C 312.799 230.005,312.936 229.600,313.102 229.600 C 313.576 229.600,314.321 227.586,314.619 225.500 C 314.769 224.455,315.050 223.600,315.245 223.600 C 315.440 223.600,315.600 223.150,315.600 222.600 C 315.600 222.050,315.759 221.600,315.953 221.600 C 316.148 221.600,316.432 220.430,316.585 219.000 C 316.738 217.570,317.029 216.400,317.232 216.400 C 317.434 216.400,317.600 215.590,317.600 214.600 C 317.600 213.610,317.766 212.800,317.968 212.800 C 318.170 212.800,318.463 211.000,318.619 208.800 C 318.775 206.600,319.060 204.800,319.252 204.800 C 319.443 204.800,319.600 203.360,319.600 201.600 C 319.600 199.733,319.767 198.400,320.000 198.400 C 320.257 198.400,320.400 194.467,320.400 187.400 C 320.400 180.333,320.257 176.400,320.000 176.400 C 319.769 176.400,319.600 175.133,319.600 173.400 C 319.600 171.750,319.447 170.400,319.259 170.400 C 319.072 170.400,318.795 168.645,318.645 166.500 C 318.495 164.355,318.199 162.540,317.986 162.467 C 317.774 162.393,317.600 161.628,317.600 160.767 C 317.600 159.905,317.438 159.200,317.241 159.200 C 317.043 159.200,316.755 157.940,316.600 156.400 C 316.445 154.860,316.157 153.600,315.959 153.600 C 315.762 153.600,315.600 153.060,315.600 152.400 C 315.600 151.740,315.437 151.200,315.238 151.200 C 315.038 151.200,314.751 150.300,314.600 149.200 C 314.449 148.100,314.162 147.200,313.962 147.200 C 313.763 147.200,313.600 146.750,313.600 146.200 C 313.600 145.650,313.431 145.200,313.225 145.200 C 313.018 145.200,312.728 144.390,312.579 143.400 C 312.431 142.410,312.150 141.600,311.955 141.600 C 311.760 141.600,311.600 141.150,311.600 140.600 C 311.600 140.050,311.422 139.600,311.205 139.600 C 310.987 139.600,310.694 138.880,310.554 138.000 C 310.413 137.120,310.141 136.400,309.949 136.400 C 309.757 136.400,309.600 136.130,309.600 135.800 C 309.600 135.470,309.440 135.200,309.245 135.200 C 309.049 135.200,308.771 134.570,308.626 133.800 C 308.482 133.030,308.192 132.400,307.982 132.400 C 307.772 132.400,307.600 132.130,307.600 131.800 C 307.600 131.470,307.436 131.200,307.235 131.200 C 307.034 131.200,306.749 130.479,306.600 129.598 C 306.451 128.717,306.014 127.772,305.629 127.498 C 305.244 127.224,304.798 126.471,304.638 125.824 C 304.478 125.177,304.011 124.356,303.600 124.000 C 303.189 123.644,302.732 122.868,302.583 122.276 C 302.435 121.684,302.153 121.200,301.957 121.200 C 301.760 121.200,301.600 120.859,301.600 120.443 C 301.600 120.026,301.330 119.582,301.000 119.455 C 300.670 119.329,300.400 118.859,300.400 118.413 C 300.400 117.966,300.220 117.600,300.000 117.600 C 299.780 117.600,299.600 117.396,299.600 117.146 C 299.600 116.896,299.150 116.275,298.600 115.765 C 298.050 115.255,297.600 114.650,297.600 114.419 C 297.600 114.189,297.285 113.671,296.900 113.270 C 295.747 112.067,294.400 110.249,294.400 109.895 C 294.400 109.713,293.950 109.114,293.400 108.564 C 292.850 108.014,292.400 107.392,292.400 107.182 C 292.400 106.972,291.455 105.846,290.300 104.679 C 288.046 102.403,286.400 100.403,286.400 99.940 C 286.400 99.783,286.049 99.543,285.620 99.406 C 285.192 99.270,284.733 98.817,284.600 98.400 C 284.467 97.983,284.017 97.533,283.600 97.400 C 283.183 97.267,282.733 96.817,282.600 96.400 C 282.467 95.983,282.017 95.533,281.600 95.400 C 281.183 95.267,280.733 94.817,280.600 94.400 C 280.467 93.983,280.017 93.533,279.600 93.400 C 279.183 93.267,278.733 92.817,278.600 92.400 C 278.467 91.983,277.978 91.520,277.512 91.372 C 277.046 91.224,275.787 90.225,274.714 89.152 C 273.640 88.078,272.543 87.200,272.276 87.200 C 272.009 87.200,271.452 86.750,271.039 86.200 C 270.626 85.650,270.076 85.200,269.816 85.200 C 269.557 85.200,268.964 84.795,268.500 84.300 C 267.286 83.006,266.494 82.400,266.017 82.400 C 265.788 82.400,265.600 82.232,265.600 82.027 C 265.600 81.822,265.195 81.526,264.700 81.370 C 264.205 81.213,263.530 80.777,263.200 80.400 C 262.870 80.023,262.195 79.587,261.700 79.430 C 261.205 79.274,260.800 78.978,260.800 78.773 C 260.800 78.568,260.530 78.400,260.200 78.400 C 259.870 78.400,259.600 78.240,259.600 78.043 C 259.600 77.847,259.150 77.574,258.600 77.436 C 258.050 77.298,257.600 77.008,257.600 76.792 C 257.600 76.577,257.330 76.400,257.000 76.400 C 256.670 76.400,256.400 76.223,256.400 76.008 C 256.400 75.792,255.950 75.502,255.400 75.364 C 254.850 75.226,254.400 74.953,254.400 74.757 C 254.400 74.560,254.040 74.400,253.600 74.400 C 253.160 74.400,252.800 74.234,252.800 74.032 C 252.800 73.829,252.260 73.545,251.600 73.400 C 250.940 73.255,250.400 72.971,250.400 72.768 C 250.400 72.566,250.040 72.400,249.600 72.400 C 249.160 72.400,248.800 72.234,248.800 72.032 C 248.800 71.829,248.260 71.545,247.600 71.400 C 246.940 71.255,246.400 70.971,246.400 70.768 C 246.400 70.566,246.040 70.400,245.600 70.400 C 245.160 70.400,244.800 70.234,244.800 70.032 C 244.800 69.829,244.260 69.545,243.600 69.400 C 242.940 69.255,242.400 68.971,242.400 68.768 C 242.400 68.566,241.950 68.400,241.400 68.400 C 240.850 68.400,240.400 68.240,240.400 68.045 C 240.400 67.850,239.590 67.569,238.600 67.421 C 237.610 67.272,236.800 66.982,236.800 66.775 C 236.800 66.569,236.350 66.400,235.800 66.400 C 235.250 66.400,234.800 66.222,234.800 66.005 C 234.800 65.787,234.080 65.494,233.200 65.354 C 232.320 65.213,231.600 64.941,231.600 64.749 C 231.600 64.557,231.150 64.400,230.600 64.400 C 230.050 64.400,229.600 64.243,229.600 64.052 C 229.600 63.860,228.520 63.581,227.200 63.432 C 225.880 63.282,224.800 62.989,224.800 62.780 C 224.800 62.571,224.260 62.400,223.600 62.400 C 222.940 62.400,222.400 62.235,222.400 62.034 C 222.400 61.833,221.050 61.542,219.400 61.387 C 217.750 61.233,216.400 60.947,216.400 60.753 C 216.400 60.559,215.605 60.400,214.633 60.400 C 213.662 60.400,212.807 60.231,212.733 60.025 C 212.660 59.818,210.125 59.522,207.100 59.366 C 204.075 59.211,201.600 58.930,201.600 58.742 C 201.600 58.554,197.010 58.400,191.400 58.400 C 185.790 58.400,181.200 58.553,181.200 58.740 M203.357 112.233 C 203.491 112.581,203.600 126.691,203.600 143.590 C 203.600 171.238,203.663 174.339,204.233 174.557 C 204.581 174.691,218.891 174.800,236.033 174.800 L 267.200 174.800 267.200 187.029 C 267.200 197.093,267.099 199.358,266.629 199.829 C 266.143 200.314,261.360 200.400,234.829 200.400 L 203.600 200.400 203.600 231.800 L 203.600 263.200 191.200 263.200 L 178.800 263.200 178.800 231.800 L 178.800 200.400 147.771 200.400 C 121.413 200.400,116.657 200.314,116.171 199.829 C 115.701 199.358,115.600 197.094,115.600 187.031 L 115.600 174.805 147.100 174.702 L 178.600 174.600 178.702 143.100 L 178.805 111.600 190.960 111.600 C 201.674 111.600,203.143 111.675,203.357 112.233 " stroke="none" fill="#040404" fill-rule="evenodd"></path><path id="path1" d="" stroke="none" fill="#080404" fill-rule="evenodd"></path><path id="path2" d="" stroke="none" fill="#080404" fill-rule="evenodd"></path><path id="path3" d="" stroke="none" fill="#080404" fill-rule="evenodd"></path><path id="path4" d="" stroke="none" fill="#080404" fill-rule="evenodd"></path></g></svg>