<?xml version="1.0" encoding="utf-8"?>
<!-- Generator: Adobe Illustrator 24.1.1, SVG Export Plug-In . SVG Version: 6.00 Build 0)  -->
<svg version="1.1" id="Layer_1" xmlns="http://www.w3.org/2000/svg" xmlns:xlink="http://www.w3.org/1999/xlink" x="0px" y="0px"
	 viewBox="0 0 512 512" style="enable-background:new 0 0 512 512;" xml:space="preserve">
<g>
	<path d="M394.7,448v21.3c64.8,0,117.3-52.5,117.3-117.3c0-64.8-52.5-117.3-117.3-117.3c-64.8,0-117.3,52.5-117.3,117.3
		c0,64.8,52.5,117.3,117.3,117.3V448v-21.3c-41.2-0.1-74.6-33.4-74.7-74.7c0.1-41.2,33.4-74.6,74.7-74.7
		c41.2,0.1,74.6,33.4,74.7,74.7c-0.1,41.2-33.4,74.6-74.7,74.7V448z M213.3,170.7h85.3V128h-85.3V170.7z M51.7,317.6
		c0,0,5.3-12.7,13.5-32c12.2-29,30.9-73,47.4-111.7c8.3-19.3,16-37.4,22.2-51.5c6.1-14,10.9-24.7,12.3-27.6c2.9-5.3,5-6.4,9-8
		c4-1.4,9.4-1.6,14.6-1.6c5-0.1,11.6,0.5,14.7,2.5c1.6,1,2.6,1.8,3.9,4.1c1.2,2.3,2.7,6.7,2.7,14.7v234.7h42.7V106.7
		c0-13.3-2.5-24.9-7.6-34.6c-7.6-14.8-21-23-31.8-26.2c-10.9-3.4-20.3-3.2-24.6-3.2c-5.5,0.1-16.1-0.2-28.1,3.8
		c-12,3.8-25.9,13.4-33.7,29.4c-1.7,3.5-4.2,8.9-7.6,16.7C77.6,146,12.4,301,12.3,301.1L51.7,317.6L51.7,317.6z M117.3,448v-21.3
		c-41.2-0.1-74.6-33.4-74.7-74.7c0.1-41.2,33.4-74.6,74.7-74.7c41.2,0.1,74.6,33.4,74.7,74.7c-0.1,41.2-33.4,74.6-74.7,74.7V448
		v21.3c64.8,0,117.3-52.5,117.3-117.3c0-64.8-52.5-117.3-117.3-117.3C52.5,234.7,0,287.2,0,352c0,64.8,52.5,117.3,117.3,117.3V448z
		 M499.7,301.1c0,0-21.3-50.7-44-104.1c-11.3-26.7-23-54-32.5-76.1c-4.8-11-9-20.7-12.4-28.4c-3.4-7.7-5.9-13.2-7.6-16.7
		c-7.8-16-21.7-25.6-33.7-29.4c-12-4-22.6-3.7-28.1-3.8c-5.7,0.1-20.4-0.5-35.9,8.1C297.7,55.1,290,62.3,285,72
		c-5.1,9.7-7.6,21.3-7.6,34.6v234.7H320V106.7c0-8,1.5-12.4,2.7-14.7c1.9-3.2,3.3-4,6.8-5.3c3.5-1.1,8-1.3,11.8-1.3
		c5.2-0.1,10.6,0.2,14.6,1.6c4,1.6,6.1,2.6,9,8c0.9,1.9,3.5,7.4,6.8,14.8c11.6,26.3,33.8,78.4,53.1,123.7
		c19.3,45.4,35.5,84.1,35.6,84.2L499.7,301.1L499.7,301.1z M213.3,362.7h85.3V320h-85.3V362.7z"/>
</g>
</svg>
