<svg xmlns="http://www.w3.org/2000/svg" version="1.0" width="387.000000" height="559.000000" preserveAspectRatio="xMidYMid meet"><rect id="backgroundrect" width="100%" height="100%" x="0" y="0" fill="none" stroke="none"/>


<g class="currentLayer" style=""><title>Layer 1</title><g transform="translate(0,559) scale(0.10000000149011612,-0.10000000149011612) " fill="#ffffff" stroke="none" id="svg_1" class="selected" fill-opacity="1">
<path d="M1117 5580 c-64 -11 -134 -46 -155 -78 -14 -21 -18 -57 -20 -193 l-4 -168 -396 -3 c-388 -3 -398 -3 -439 -25 -50 -27 -79 -66 -92 -124 -6 -24 -11 -169 -11 -321 l0 -278 1930 0 1930 0 2 243 c5 393 5 388 -60 451 -54 50 -105 56 -529 56 l-383 0 0 175 0 176 -27 25 c-30 27 -98 50 -193 64 -78 12 -1484 11 -1553 0z" id="svg_2" fill="#ffffff" fill-opacity="1"/>
<path d="M7 3773 c-12 -11 -8 -3594 4 -3636 14 -52 72 -114 117 -127 52 -14 3553 -14 3604 0 45 13 93 51 115 94 13 24 17 59 18 156 0 69 -1 889 -2 1823 l-3 1697 -1923 0 c-1058 0 -1927 -3 -1930 -7z m2066 -505 c44 -41 49 -76 59 -418 13 -461 -5 -2107 -23 -2174 -23 -81 -45 -91 -204 -91 -120 0 -136 2 -162 21 -72 54 -75 108 -74 1344 2 1237 6 1302 74 1330 12 5 86 9 164 9 134 1 143 0 166 -21z m1165 -13 c12 -16 27 -61 37 -118 14 -83 16 -212 13 -1282 -4 -1302 -2 -1265 -61 -1309 -25 -19 -42 -21 -156 -21 -181 0 -191 9 -216 172 -12 82 -15 280 -15 1203 0 1262 4 1332 68 1369 9 6 83 11 164 11 145 0 147 0 166 -25z m-2259 -16 c13 -14 25 -53 36 -113 14 -81 16 -214 13 -1246 -4 -1254 -3 -1231 -58 -1272 -21 -15 -46 -18 -155 -20 -134 -1 -166 6 -184 40 -5 10 -17 66 -25 124 -14 91 -16 253 -16 1164 0 1017 5 1202 31 1281 18 57 37 63 196 63 132 0 144 -2 162 -21z" id="svg_3" fill="#ffffff" fill-opacity="1"/>
</g></g></svg>