<svg xmlns="http://www.w3.org/2000/svg" xmlns:xlink="http://www.w3.org/1999/xlink" version="1.1" enable-background="new 0 0 1000 1000" xml:space="preserve" width="1000" height="1000"><rect id="backgroundrect" width="100%" height="100%" x="0" y="0" fill="none" stroke="none"/>
<metadata> Svg Vector Icons : http://www.onlinewebfonts.com/icon </metadata>

<g class="currentLayer" style=""><title>Layer 1</title><g id="svg_1" class="selected" fill="#ffffff" fill-opacity="1"><g id="svg_2" fill="#ffffff" fill-opacity="1"><path d="M55.61111104488373,990 c-12.5,0 -23,-4.3 -31.6,-12.9 C15.411111044883729,968.5 11.111111044883728,957.9 11.111111044883728,945.5 v-890.9 c0,-11.9 4.3,-22.3 12.9,-31.2 c8.6,-8.9 19.2,-13.4 31.6,-13.4 h222.7 V277.29999999999995 h445.5 V10 h89.1 L991.1111110448837,188.20000000000005 V945.5 c0,12.5 -4.3,23 -12.9,31.6 c-8.6,8.6 -19.2,12.9 -31.6,12.9 H812.9111110448837 v-356.4 H189.31111104488372 V990 H55.61111104488373 zM545.6111110448837,188.20000000000005 V10 h89.1 V188.20000000000005 H545.6111110448837 z" stroke-width="0" id="svg_3" fill="#ffffff" fill-opacity="1"/></g></g></g></svg>